<mxfile host="app.diagrams.net" modified="2024-04-25T13:37:45.793Z" agent="Mozilla/5.0 (Windows NT 10.0; Win64; x64; rv:125.0) Gecko/20100101 Firefox/125.0" etag="XZ0at6ryZEuW_BNuf3Py" version="24.2.9" type="device">
  <diagram name="ページ1" id="6O8cq4Rfigk1k-ii5kAo">
    <mxGraphModel dx="2462" dy="896" grid="1" gridSize="10" guides="1" tooltips="1" connect="1" arrows="1" fold="1" page="1" pageScale="1" pageWidth="827" pageHeight="1169" math="0" shadow="0">
      <root>
        <mxCell id="0" />
        <object label="ネットワーク" id="1">
          <mxCell style="locked=1;" parent="0" />
        </object>
        <mxCell id="ExSx5SIZApUU_Iw7rpWn-4" value="" style="endArrow=oval;html=1;rounded=0;startArrow=oval;startFill=1;endFill=1;strokeWidth=4;fillColor=#a20025;strokeColor=#6F0000;" parent="1" edge="1">
          <mxGeometry width="50" height="50" relative="1" as="geometry">
            <mxPoint x="-240" y="477" as="sourcePoint" />
            <mxPoint x="800" y="477" as="targetPoint" />
          </mxGeometry>
        </mxCell>
        <mxCell id="ExSx5SIZApUU_Iw7rpWn-5" value="" style="endArrow=oval;html=1;rounded=0;startArrow=oval;startFill=1;endFill=1;strokeWidth=4;fillColor=#008a00;strokeColor=#005700;" parent="1" edge="1">
          <mxGeometry width="50" height="50" relative="1" as="geometry">
            <mxPoint x="-240" y="40" as="sourcePoint" />
            <mxPoint x="800" y="40" as="targetPoint" />
          </mxGeometry>
        </mxCell>
        <mxCell id="ExSx5SIZApUU_Iw7rpWn-10" value="172.16.0.0/12" style="text;html=1;align=center;verticalAlign=middle;resizable=0;points=[];autosize=1;strokeColor=none;fillColor=none;" parent="1" vertex="1">
          <mxGeometry x="-355" y="24" width="100" height="30" as="geometry" />
        </mxCell>
        <mxCell id="ExSx5SIZApUU_Iw7rpWn-11" value="10.0.0.0/24" style="text;html=1;align=center;verticalAlign=middle;resizable=0;points=[];autosize=1;strokeColor=none;fillColor=none;" parent="1" vertex="1">
          <mxGeometry x="-345" y="462" width="80" height="30" as="geometry" />
        </mxCell>
        <mxCell id="ExSx5SIZApUU_Iw7rpWn-20" value="" style="endArrow=none;html=1;rounded=0;startArrow=none;startFill=0;endFill=0;strokeWidth=4;fillColor=#008a00;strokeColor=#005700;exitX=0.5;exitY=1;exitDx=0;exitDy=0;" parent="1" edge="1">
          <mxGeometry width="50" height="50" relative="1" as="geometry">
            <mxPoint x="40" y="40" as="sourcePoint" />
            <mxPoint x="40" y="120" as="targetPoint" />
          </mxGeometry>
        </mxCell>
        <mxCell id="ExSx5SIZApUU_Iw7rpWn-25" value="" style="endArrow=none;html=1;rounded=0;startArrow=none;startFill=0;endFill=0;strokeWidth=4;fillColor=#a20025;strokeColor=#6F0000;exitX=0.5;exitY=1;exitDx=0;exitDy=0;" parent="1" edge="1">
          <mxGeometry width="50" height="50" relative="1" as="geometry">
            <mxPoint x="40" y="397" as="sourcePoint" />
            <mxPoint x="40" y="477" as="targetPoint" />
          </mxGeometry>
        </mxCell>
        <object label="マシン" id="ExSx5SIZApUU_Iw7rpWn-6">
          <mxCell style="locked=1;" parent="0" />
        </object>
        <mxCell id="ExSx5SIZApUU_Iw7rpWn-7" value="" style="rounded=1;whiteSpace=wrap;html=1;fillColor=#dae8fc;strokeColor=#6c8ebf;align=center;horizontal=1;" parent="ExSx5SIZApUU_Iw7rpWn-6" vertex="1">
          <mxGeometry x="-160" y="120" width="820" height="270" as="geometry" />
        </mxCell>
        <mxCell id="ExSx5SIZApUU_Iw7rpWn-26" value="eth1" style="rounded=0;whiteSpace=wrap;html=1;fillColor=#e3c800;fontColor=#000000;strokeColor=#B09500;" parent="ExSx5SIZApUU_Iw7rpWn-6" vertex="1">
          <mxGeometry y="380" width="80" height="20" as="geometry" />
        </mxCell>
        <mxCell id="ExSx5SIZApUU_Iw7rpWn-32" value="eth0" style="rounded=0;whiteSpace=wrap;html=1;fillColor=#e3c800;fontColor=#000000;strokeColor=#B09500;" parent="ExSx5SIZApUU_Iw7rpWn-6" vertex="1">
          <mxGeometry x="-1.25" y="110" width="80" height="20" as="geometry" />
        </mxCell>
        <mxCell id="ExSx5SIZApUU_Iw7rpWn-33" value="10.0.0.11" style="text;html=1;align=center;verticalAlign=middle;resizable=0;points=[];autosize=1;strokeColor=none;fillColor=none;" parent="ExSx5SIZApUU_Iw7rpWn-6" vertex="1">
          <mxGeometry x="50" y="410" width="70" height="30" as="geometry" />
        </mxCell>
        <mxCell id="ExSx5SIZApUU_Iw7rpWn-36" value="172.16.0.11" style="text;html=1;align=center;verticalAlign=middle;resizable=0;points=[];autosize=1;strokeColor=none;fillColor=none;" parent="ExSx5SIZApUU_Iw7rpWn-6" vertex="1">
          <mxGeometry x="-125" y="290" width="90" height="30" as="geometry" />
        </mxCell>
        <mxCell id="21zLahzKs5m0MUraH8DA-1" value="&lt;font style=&quot;font-size: 17px;&quot;&gt;Controller Node&lt;/font&gt;" style="text;html=1;align=center;verticalAlign=middle;resizable=0;points=[];autosize=1;strokeColor=none;fillColor=none;" parent="ExSx5SIZApUU_Iw7rpWn-6" vertex="1">
          <mxGeometry x="490" y="130" width="140" height="30" as="geometry" />
        </mxCell>
        <mxCell id="21zLahzKs5m0MUraH8DA-3" value="" style="endArrow=none;html=1;rounded=0;startArrow=none;startFill=0;endFill=0;strokeWidth=4;fillColor=#008a00;strokeColor=#005700;exitX=0.5;exitY=1;exitDx=0;exitDy=0;entryX=0.5;entryY=0;entryDx=0;entryDy=0;" parent="ExSx5SIZApUU_Iw7rpWn-6" target="dvhGGXUbRXbrGdrFJpqn-1" edge="1" source="ExSx5SIZApUU_Iw7rpWn-32">
          <mxGeometry width="50" height="50" relative="1" as="geometry">
            <mxPoint x="-40" y="130" as="sourcePoint" />
            <mxPoint x="-40" y="210" as="targetPoint" />
          </mxGeometry>
        </mxCell>
        <mxCell id="dvhGGXUbRXbrGdrFJpqn-10" value="" style="group" vertex="1" connectable="0" parent="ExSx5SIZApUU_Iw7rpWn-6">
          <mxGeometry x="-122.5" y="170" width="322.5" height="110" as="geometry" />
        </mxCell>
        <mxCell id="21zLahzKs5m0MUraH8DA-2" value="br-provider" style="rounded=0;whiteSpace=wrap;html=1;fillColor=#B39D00;fontColor=#000000;strokeColor=#B09500;" parent="dvhGGXUbRXbrGdrFJpqn-10" vertex="1">
          <mxGeometry width="322.5" height="110" as="geometry" />
        </mxCell>
        <mxCell id="dvhGGXUbRXbrGdrFJpqn-1" value="&lt;font color=&quot;#ffffff&quot;&gt;eth0&lt;/font&gt;" style="rounded=0;whiteSpace=wrap;html=1;fillColor=#6E6000;fontColor=#000000;strokeColor=#B09500;" vertex="1" parent="dvhGGXUbRXbrGdrFJpqn-10">
          <mxGeometry x="121.25" width="80" height="20" as="geometry" />
        </mxCell>
        <mxCell id="dvhGGXUbRXbrGdrFJpqn-7" value="&lt;font color=&quot;#ffffff&quot;&gt;phy-br-provider&lt;/font&gt;" style="rounded=0;whiteSpace=wrap;html=1;fillColor=#6E6000;fontColor=#000000;strokeColor=#B09500;" vertex="1" parent="dvhGGXUbRXbrGdrFJpqn-10">
          <mxGeometry x="182.5" y="90" width="120" height="20" as="geometry" />
        </mxCell>
        <mxCell id="dvhGGXUbRXbrGdrFJpqn-9" value="&lt;font color=&quot;#ffffff&quot;&gt;br-provider&lt;/font&gt;" style="rounded=0;whiteSpace=wrap;html=1;fillColor=#6E6000;fontColor=#000000;strokeColor=#B09500;" vertex="1" parent="dvhGGXUbRXbrGdrFJpqn-10">
          <mxGeometry x="22.5" y="90" width="120" height="20" as="geometry" />
        </mxCell>
        <mxCell id="dvhGGXUbRXbrGdrFJpqn-13" value="br-int" style="rounded=0;whiteSpace=wrap;html=1;fillColor=#B39D00;fontColor=#000000;strokeColor=#B09500;" vertex="1" parent="ExSx5SIZApUU_Iw7rpWn-6">
          <mxGeometry x="270" y="170" width="322.5" height="110" as="geometry" />
        </mxCell>
        <mxCell id="dvhGGXUbRXbrGdrFJpqn-15" value="&lt;font color=&quot;#ffffff&quot;&gt;br-int&lt;/font&gt;" style="rounded=0;whiteSpace=wrap;html=1;fillColor=#6E6000;fontColor=#000000;strokeColor=#B09500;" vertex="1" parent="ExSx5SIZApUU_Iw7rpWn-6">
          <mxGeometry x="452.5" y="260" width="120" height="20" as="geometry" />
        </mxCell>
        <mxCell id="dvhGGXUbRXbrGdrFJpqn-16" value="&lt;font color=&quot;#ffffff&quot;&gt;int-br-provider&lt;/font&gt;" style="rounded=0;whiteSpace=wrap;html=1;fillColor=#6E6000;fontColor=#000000;strokeColor=#B09500;" vertex="1" parent="ExSx5SIZApUU_Iw7rpWn-6">
          <mxGeometry x="292.5" y="260" width="120" height="20" as="geometry" />
        </mxCell>
        <mxCell id="dvhGGXUbRXbrGdrFJpqn-18" value="&lt;font color=&quot;#ffffff&quot;&gt;br-provider&lt;/font&gt;" style="rounded=0;whiteSpace=wrap;html=1;fillColor=#4A4100;fontColor=#000000;strokeColor=#B09500;" vertex="1" parent="ExSx5SIZApUU_Iw7rpWn-6">
          <mxGeometry x="-100" y="320" width="120" height="20" as="geometry" />
        </mxCell>
        <mxCell id="dvhGGXUbRXbrGdrFJpqn-19" value="&lt;font color=&quot;#ffffff&quot;&gt;phy-br-provider&lt;/font&gt;" style="rounded=0;whiteSpace=wrap;html=1;fillColor=#4A4100;fontColor=#000000;strokeColor=#B09500;" vertex="1" parent="ExSx5SIZApUU_Iw7rpWn-6">
          <mxGeometry x="60" y="320" width="120" height="20" as="geometry" />
        </mxCell>
        <mxCell id="dvhGGXUbRXbrGdrFJpqn-21" value="&lt;font color=&quot;#ffffff&quot;&gt;int-br-provider&lt;/font&gt;" style="rounded=0;whiteSpace=wrap;html=1;fillColor=#4A4100;fontColor=#000000;strokeColor=#B09500;" vertex="1" parent="ExSx5SIZApUU_Iw7rpWn-6">
          <mxGeometry x="292.5" y="320" width="120" height="20" as="geometry" />
        </mxCell>
        <mxCell id="dvhGGXUbRXbrGdrFJpqn-22" value="&lt;font color=&quot;#ffffff&quot;&gt;br-int&lt;/font&gt;" style="rounded=0;whiteSpace=wrap;html=1;fillColor=#4A4100;fontColor=#000000;strokeColor=#B09500;" vertex="1" parent="ExSx5SIZApUU_Iw7rpWn-6">
          <mxGeometry x="452.5" y="320" width="120" height="20" as="geometry" />
        </mxCell>
        <mxCell id="dvhGGXUbRXbrGdrFJpqn-23" value="" style="endArrow=none;html=1;rounded=0;startArrow=none;startFill=0;endFill=0;strokeWidth=4;fillColor=#008a00;strokeColor=#005700;exitX=0.5;exitY=1;exitDx=0;exitDy=0;entryX=0.5;entryY=0;entryDx=0;entryDy=0;" edge="1" parent="ExSx5SIZApUU_Iw7rpWn-6" source="dvhGGXUbRXbrGdrFJpqn-9" target="dvhGGXUbRXbrGdrFJpqn-18">
          <mxGeometry width="50" height="50" relative="1" as="geometry">
            <mxPoint x="49" y="140" as="sourcePoint" />
            <mxPoint x="49" y="180" as="targetPoint" />
          </mxGeometry>
        </mxCell>
        <mxCell id="dvhGGXUbRXbrGdrFJpqn-24" value="" style="endArrow=none;html=1;rounded=0;startArrow=none;startFill=0;endFill=0;strokeWidth=4;fillColor=#008a00;strokeColor=#005700;exitX=0.5;exitY=1;exitDx=0;exitDy=0;" edge="1" parent="ExSx5SIZApUU_Iw7rpWn-6" source="dvhGGXUbRXbrGdrFJpqn-7" target="dvhGGXUbRXbrGdrFJpqn-19">
          <mxGeometry width="50" height="50" relative="1" as="geometry">
            <mxPoint x="-30" y="290" as="sourcePoint" />
            <mxPoint x="-30" y="330" as="targetPoint" />
          </mxGeometry>
        </mxCell>
        <mxCell id="dvhGGXUbRXbrGdrFJpqn-25" value="" style="endArrow=none;html=1;rounded=0;startArrow=none;startFill=0;endFill=0;strokeWidth=4;fillColor=#008a00;strokeColor=#005700;exitX=0;exitY=0.5;exitDx=0;exitDy=0;entryX=1;entryY=0.5;entryDx=0;entryDy=0;" edge="1" parent="ExSx5SIZApUU_Iw7rpWn-6" source="dvhGGXUbRXbrGdrFJpqn-21" target="dvhGGXUbRXbrGdrFJpqn-19">
          <mxGeometry width="50" height="50" relative="1" as="geometry">
            <mxPoint x="130" y="290" as="sourcePoint" />
            <mxPoint x="130" y="330" as="targetPoint" />
          </mxGeometry>
        </mxCell>
        <mxCell id="dvhGGXUbRXbrGdrFJpqn-26" value="" style="endArrow=none;html=1;rounded=0;startArrow=none;startFill=0;endFill=0;strokeWidth=4;fillColor=#008a00;strokeColor=#005700;exitX=0.5;exitY=1;exitDx=0;exitDy=0;" edge="1" parent="ExSx5SIZApUU_Iw7rpWn-6" source="dvhGGXUbRXbrGdrFJpqn-16" target="dvhGGXUbRXbrGdrFJpqn-21">
          <mxGeometry width="50" height="50" relative="1" as="geometry">
            <mxPoint x="130" y="290" as="sourcePoint" />
            <mxPoint x="130" y="330" as="targetPoint" />
          </mxGeometry>
        </mxCell>
        <mxCell id="dvhGGXUbRXbrGdrFJpqn-27" value="" style="endArrow=none;html=1;rounded=0;startArrow=none;startFill=0;endFill=0;strokeWidth=4;fillColor=#008a00;strokeColor=#005700;exitX=0.5;exitY=1;exitDx=0;exitDy=0;entryX=0.5;entryY=0;entryDx=0;entryDy=0;" edge="1" parent="ExSx5SIZApUU_Iw7rpWn-6" source="dvhGGXUbRXbrGdrFJpqn-15" target="dvhGGXUbRXbrGdrFJpqn-22">
          <mxGeometry width="50" height="50" relative="1" as="geometry">
            <mxPoint x="363" y="290" as="sourcePoint" />
            <mxPoint x="363" y="330" as="targetPoint" />
          </mxGeometry>
        </mxCell>
      </root>
    </mxGraphModel>
  </diagram>
</mxfile>
